<mxfile modified="2022-02-14T15:44:46.625Z" host="app.diagrams.net" agent="5.0 (Windows NT 10.0; Win64; x64) AppleWebKit/537.36 (KHTML, like Gecko) Chrome/98.0.4758.82 Safari/537.36" etag="AIOs_sGtFOmjjDCoxN60" version="15.9.6" type="github">
  <diagram id="Ht1M8jgEwFfnCIfOTk4-" name="System_Architecture">
    <mxGraphModel dx="2307" dy="1287" grid="1" gridSize="10" guides="0" tooltips="1" connect="1" arrows="1" fold="1" page="1" pageScale="1" pageWidth="1200" pageHeight="1600" math="0" shadow="0">
      <root>
        <mxCell id="0" />
        <mxCell id="1" parent="0" />
        <mxCell id="UEzPUAAOIrF-is8g5C7q-74" value="AWS Cloud" style="points=[[0,0],[0.25,0],[0.5,0],[0.75,0],[1,0],[1,0.25],[1,0.5],[1,0.75],[1,1],[0.75,1],[0.5,1],[0.25,1],[0,1],[0,0.75],[0,0.5],[0,0.25]];outlineConnect=0;gradientColor=none;html=1;whiteSpace=wrap;fontSize=12;fontStyle=0;shape=mxgraph.aws4.group;grIcon=mxgraph.aws4.group_aws_cloud_alt;strokeColor=#232F3E;fillColor=none;verticalAlign=top;align=left;spacingLeft=30;fontColor=#232F3E;dashed=0;labelBackgroundColor=#ffffff;container=1;pointerEvents=0;collapsible=0;recursiveResize=0;" parent="1" vertex="1">
          <mxGeometry x="810" y="260" width="1180" height="860" as="geometry" />
        </mxCell>
        <mxCell id="8yCiKGK4ImTPcXLrInO2-6" value="VPC" style="points=[[0,0],[0.25,0],[0.5,0],[0.75,0],[1,0],[1,0.25],[1,0.5],[1,0.75],[1,1],[0.75,1],[0.5,1],[0.25,1],[0,1],[0,0.75],[0,0.5],[0,0.25]];outlineConnect=0;gradientColor=none;html=1;whiteSpace=wrap;fontSize=12;fontStyle=0;container=1;pointerEvents=0;collapsible=0;recursiveResize=0;shape=mxgraph.aws4.group;grIcon=mxgraph.aws4.group_vpc;strokeColor=#248814;fillColor=none;verticalAlign=top;align=left;spacingLeft=30;fontColor=#AAB7B8;dashed=0;" parent="UEzPUAAOIrF-is8g5C7q-74" vertex="1">
          <mxGeometry x="40" y="50" width="1080" height="710" as="geometry" />
        </mxCell>
        <mxCell id="8yCiKGK4ImTPcXLrInO2-8" value="Internet Gateway" style="text;html=1;strokeColor=none;fillColor=none;align=center;verticalAlign=middle;whiteSpace=wrap;rounded=0;fontStyle=1;fontSize=20;" parent="8yCiKGK4ImTPcXLrInO2-6" vertex="1">
          <mxGeometry x="430" y="60" width="190" height="30" as="geometry" />
        </mxCell>
        <mxCell id="8yCiKGK4ImTPcXLrInO2-7" value="" style="sketch=0;outlineConnect=0;fontColor=#232F3E;gradientColor=none;fillColor=#4D27AA;strokeColor=none;dashed=0;verticalLabelPosition=bottom;verticalAlign=top;align=center;html=1;fontSize=12;fontStyle=0;aspect=fixed;pointerEvents=1;shape=mxgraph.aws4.internet_gateway;" parent="8yCiKGK4ImTPcXLrInO2-6" vertex="1">
          <mxGeometry x="486" y="-20" width="78" height="78" as="geometry" />
        </mxCell>
        <mxCell id="8yCiKGK4ImTPcXLrInO2-9" value="Public subnet" style="points=[[0,0],[0.25,0],[0.5,0],[0.75,0],[1,0],[1,0.25],[1,0.5],[1,0.75],[1,1],[0.75,1],[0.5,1],[0.25,1],[0,1],[0,0.75],[0,0.5],[0,0.25]];outlineConnect=0;gradientColor=none;html=1;whiteSpace=wrap;fontSize=12;fontStyle=0;container=1;pointerEvents=0;collapsible=0;recursiveResize=0;shape=mxgraph.aws4.group;grIcon=mxgraph.aws4.group_security_group;grStroke=0;strokeColor=#248814;fillColor=#E9F3E6;verticalAlign=top;align=left;spacingLeft=30;fontColor=#248814;dashed=0;" parent="8yCiKGK4ImTPcXLrInO2-6" vertex="1">
          <mxGeometry x="70" y="137.5" width="300" height="500.5" as="geometry" />
        </mxCell>
        <mxCell id="8yCiKGK4ImTPcXLrInO2-13" value="" style="sketch=0;outlineConnect=0;fontColor=#232F3E;gradientColor=none;fillColor=#4D27AA;strokeColor=none;dashed=0;verticalLabelPosition=bottom;verticalAlign=top;align=center;html=1;fontSize=12;fontStyle=0;aspect=fixed;pointerEvents=1;shape=mxgraph.aws4.nat_gateway;" parent="8yCiKGK4ImTPcXLrInO2-9" vertex="1">
          <mxGeometry x="94.25" y="80" width="111.5" height="111.5" as="geometry" />
        </mxCell>
        <mxCell id="8yCiKGK4ImTPcXLrInO2-14" value="NAT Gateway" style="text;html=1;strokeColor=none;fillColor=none;align=center;verticalAlign=middle;whiteSpace=wrap;rounded=0;fontStyle=1;fontSize=20;" parent="8yCiKGK4ImTPcXLrInO2-9" vertex="1">
          <mxGeometry x="75" y="52.5" width="150" height="32.5" as="geometry" />
        </mxCell>
        <mxCell id="8yCiKGK4ImTPcXLrInO2-10" value="Private subnet" style="points=[[0,0],[0.25,0],[0.5,0],[0.75,0],[1,0],[1,0.25],[1,0.5],[1,0.75],[1,1],[0.75,1],[0.5,1],[0.25,1],[0,1],[0,0.75],[0,0.5],[0,0.25]];outlineConnect=0;gradientColor=none;html=1;whiteSpace=wrap;fontSize=12;fontStyle=0;container=1;pointerEvents=0;collapsible=0;recursiveResize=0;shape=mxgraph.aws4.group;grIcon=mxgraph.aws4.group_security_group;grStroke=0;strokeColor=#147EBA;fillColor=#E6F2F8;verticalAlign=top;align=left;spacingLeft=30;fontColor=#147EBA;dashed=0;" parent="8yCiKGK4ImTPcXLrInO2-6" vertex="1">
          <mxGeometry x="680" y="130" width="340" height="441" as="geometry" />
        </mxCell>
        <mxCell id="8yCiKGK4ImTPcXLrInO2-18" style="edgeStyle=orthogonalEdgeStyle;rounded=0;orthogonalLoop=1;jettySize=auto;html=1;exitX=1;exitY=0.5;exitDx=0;exitDy=0;exitPerimeter=0;entryX=1;entryY=0.5;entryDx=0;entryDy=0;entryPerimeter=0;fontSize=20;" parent="8yCiKGK4ImTPcXLrInO2-10" source="8yCiKGK4ImTPcXLrInO2-2" target="8yCiKGK4ImTPcXLrInO2-4" edge="1">
          <mxGeometry relative="1" as="geometry">
            <Array as="points">
              <mxPoint x="280" y="160" />
              <mxPoint x="280" y="350" />
            </Array>
          </mxGeometry>
        </mxCell>
        <mxCell id="8yCiKGK4ImTPcXLrInO2-2" value="" style="sketch=0;points=[[0,0,0],[0.25,0,0],[0.5,0,0],[0.75,0,0],[1,0,0],[0,1,0],[0.25,1,0],[0.5,1,0],[0.75,1,0],[1,1,0],[0,0.25,0],[0,0.5,0],[0,0.75,0],[1,0.25,0],[1,0.5,0],[1,0.75,0]];outlineConnect=0;fontColor=#232F3E;gradientColor=#F78E04;gradientDirection=north;fillColor=#D05C17;strokeColor=#ffffff;dashed=0;verticalLabelPosition=bottom;verticalAlign=top;align=center;html=1;fontSize=12;fontStyle=0;aspect=fixed;shape=mxgraph.aws4.resourceIcon;resIcon=mxgraph.aws4.ec2;" parent="8yCiKGK4ImTPcXLrInO2-10" vertex="1">
          <mxGeometry x="126" y="121" width="78" height="78" as="geometry" />
        </mxCell>
        <mxCell id="8yCiKGK4ImTPcXLrInO2-3" value="Web Server" style="text;html=1;strokeColor=none;fillColor=none;align=center;verticalAlign=middle;whiteSpace=wrap;rounded=0;fontStyle=1;fontSize=20;" parent="8yCiKGK4ImTPcXLrInO2-10" vertex="1">
          <mxGeometry x="90" y="90" width="150" height="20" as="geometry" />
        </mxCell>
        <mxCell id="8yCiKGK4ImTPcXLrInO2-4" value="" style="sketch=0;points=[[0,0,0],[0.25,0,0],[0.5,0,0],[0.75,0,0],[1,0,0],[0,1,0],[0.25,1,0],[0.5,1,0],[0.75,1,0],[1,1,0],[0,0.25,0],[0,0.5,0],[0,0.75,0],[1,0.25,0],[1,0.5,0],[1,0.75,0]];outlineConnect=0;fontColor=#232F3E;gradientColor=#4D72F3;gradientDirection=north;fillColor=#3334B9;strokeColor=#ffffff;dashed=0;verticalLabelPosition=bottom;verticalAlign=top;align=center;html=1;fontSize=12;fontStyle=0;aspect=fixed;shape=mxgraph.aws4.resourceIcon;resIcon=mxgraph.aws4.database;" parent="8yCiKGK4ImTPcXLrInO2-10" vertex="1">
          <mxGeometry x="131" y="311" width="78" height="78" as="geometry" />
        </mxCell>
        <mxCell id="8yCiKGK4ImTPcXLrInO2-5" value="Database Server" style="text;html=1;strokeColor=none;fillColor=none;align=center;verticalAlign=middle;whiteSpace=wrap;rounded=0;fontStyle=1;fontSize=20;" parent="8yCiKGK4ImTPcXLrInO2-10" vertex="1">
          <mxGeometry x="80" y="281" width="180" height="30" as="geometry" />
        </mxCell>
        <mxCell id="8yCiKGK4ImTPcXLrInO2-19" style="edgeStyle=orthogonalEdgeStyle;rounded=0;orthogonalLoop=1;jettySize=auto;html=1;entryX=0;entryY=0.5;entryDx=0;entryDy=0;entryPerimeter=0;fontSize=20;" parent="8yCiKGK4ImTPcXLrInO2-6" source="8yCiKGK4ImTPcXLrInO2-13" target="8yCiKGK4ImTPcXLrInO2-2" edge="1">
          <mxGeometry relative="1" as="geometry">
            <Array as="points">
              <mxPoint x="395" y="290" />
              <mxPoint x="395" y="290" />
            </Array>
          </mxGeometry>
        </mxCell>
        <mxCell id="8yCiKGK4ImTPcXLrInO2-20" style="edgeStyle=orthogonalEdgeStyle;rounded=0;orthogonalLoop=1;jettySize=auto;html=1;entryX=0.5;entryY=1;entryDx=0;entryDy=0;fontSize=20;" parent="8yCiKGK4ImTPcXLrInO2-6" source="8yCiKGK4ImTPcXLrInO2-13" target="8yCiKGK4ImTPcXLrInO2-8" edge="1">
          <mxGeometry relative="1" as="geometry">
            <Array as="points">
              <mxPoint x="525" y="270" />
            </Array>
          </mxGeometry>
        </mxCell>
        <mxCell id="QgV72DIUHpCE_W5IE3gZ-5" style="edgeStyle=orthogonalEdgeStyle;rounded=0;orthogonalLoop=1;jettySize=auto;html=1;" edge="1" parent="1" source="QgV72DIUHpCE_W5IE3gZ-2" target="QgV72DIUHpCE_W5IE3gZ-3">
          <mxGeometry relative="1" as="geometry" />
        </mxCell>
        <mxCell id="QgV72DIUHpCE_W5IE3gZ-2" value="" style="sketch=0;outlineConnect=0;fontColor=#232F3E;gradientColor=none;fillColor=#232F3D;strokeColor=none;dashed=0;verticalLabelPosition=bottom;verticalAlign=top;align=center;html=1;fontSize=12;fontStyle=0;aspect=fixed;pointerEvents=1;shape=mxgraph.aws4.user;" vertex="1" parent="1">
          <mxGeometry x="535" y="910" width="100" height="100" as="geometry" />
        </mxCell>
        <mxCell id="QgV72DIUHpCE_W5IE3gZ-3" value="" style="sketch=0;pointerEvents=1;shadow=0;dashed=0;html=1;strokeColor=none;fillColor=#434445;aspect=fixed;labelPosition=center;verticalLabelPosition=bottom;verticalAlign=top;align=center;outlineConnect=0;shape=mxgraph.vvd.web_browser;" vertex="1" parent="1">
          <mxGeometry x="500" y="650" width="170" height="120.7" as="geometry" />
        </mxCell>
        <mxCell id="QgV72DIUHpCE_W5IE3gZ-6" value="end user" style="text;html=1;strokeColor=none;fillColor=none;align=center;verticalAlign=middle;whiteSpace=wrap;rounded=0;fontSize=20;" vertex="1" parent="1">
          <mxGeometry x="530" y="1020" width="100" height="30" as="geometry" />
        </mxCell>
        <mxCell id="QgV72DIUHpCE_W5IE3gZ-26" value="web browser" style="text;html=1;strokeColor=none;fillColor=none;align=center;verticalAlign=middle;whiteSpace=wrap;rounded=0;fontSize=20;" vertex="1" parent="1">
          <mxGeometry x="430" y="790" width="130" height="30" as="geometry" />
        </mxCell>
      </root>
    </mxGraphModel>
  </diagram>
</mxfile>
